<svg width="354" height="316" viewBox="0 0 354 316" fill="none" xmlns="http://www.w3.org/2000/svg">
<path d="M0.000803175 22.3605L23.0494 0H113.287L124.61 13.781L225.422 14.1674L237.13 0.386382H330.284L351.921 22.3605V100.794L330.284 124.078H278.303L272.642 136.958L80.9922 136.571L75.5883 123.692H23.0494L0.000803175 100.45V22.3605Z" fill="url(#paint0_radial_2182_650)"/>
<path d="M353.332 292.639L330.284 315H240.046L228.723 301.219L127.912 300.833L116.203 314.614H23.0494L1.41196 292.639L0 89.1632L21.6374 65.8794L73.6182 65.8794L79.2795 53L270.929 53.3864L276.333 66.2658L328.872 66.2658L351.92 89.5073L353.332 292.639Z" fill="url(#paint1_radial_2182_650)"/>
<path d="M3.17273 38.4649H0V19.6627C1.11633 18.64 2.24735 17.6174 3.39305 16.5947H4.40656C9.31254 11.7444 14.2185 6.87951 19.1245 2H40.937V5.41858L34.5034 11.8613H32.1238L30.4494 13.5268H27.7173C26.0722 15.163 24.427 16.8139 22.7819 18.4793H20.6227C16.7743 22.2777 12.9112 26.0908 9.03345 29.9184V32.6357L3.17273 38.4649ZM17.9347 4.14757L5.42007 16.5947H7.3149C10.8401 13.0593 14.3801 9.5238 17.9347 5.98834V4.14757Z" fill="#50F26A"/>
<path d="M36.4649 311.764L36.4649 314.937L17.6627 314.937C16.64 313.821 15.6174 312.69 14.5947 311.544L14.5947 310.53C9.74442 305.624 4.87951 300.719 -8.35958e-07 295.813L-1.78941e-06 274L3.41858 274L9.86129 280.434L9.86129 282.813L11.5268 284.488L11.5268 287.22C13.163 288.865 14.8139 290.51 16.4793 292.155L16.4793 294.314C20.2777 298.163 24.0908 302.026 27.9184 305.904L30.6357 305.904L36.4649 311.764ZM2.14757 297.002L14.5947 309.517L14.5947 307.622C11.0593 304.097 7.5238 300.557 3.98834 297.002L2.14757 297.002Z" fill="#50F26A"/>
<rect y="27" width="3" height="252" fill="#50F26A"/>
<path d="M348.826 279L351.999 279L351.999 297.802C350.883 298.825 349.752 299.847 348.606 300.87L347.592 300.87C342.686 305.72 337.78 310.585 332.874 315.465L311.062 315.465L311.062 312.046L317.496 305.604L319.875 305.604L321.55 303.938L324.282 303.938C325.927 302.302 327.572 300.651 329.217 298.986L331.376 298.986C335.225 295.187 339.088 291.374 342.965 287.546L342.965 284.829L348.826 279ZM334.064 313.317L346.579 300.87L344.684 300.87C341.159 304.406 337.619 307.941 334.064 311.476L334.064 313.317Z" fill="#50F26A"/>
<path d="M315.535 3.17272L315.535 -1.59393e-06L334.337 -7.7206e-07C335.36 1.11633 336.383 2.24735 337.405 3.39305L337.405 4.40656C342.255 9.31254 347.12 14.2185 352 19.1245L352 40.937L348.581 40.937L342.139 34.5034L342.139 32.1238L340.473 30.4494L340.473 27.7173C338.837 26.0722 337.186 24.427 335.521 22.7819L335.521 20.6227C331.722 16.7743 327.909 12.9112 324.081 9.03345L321.364 9.03345L315.535 3.17272ZM349.852 17.9347L337.405 5.42007L337.405 7.31489C340.941 10.8401 344.476 14.3801 348.012 17.9347L349.852 17.9347Z" fill="#50F26A"/>
<rect x="349" y="27" width="3" height="262" fill="#50F26A"/>
<defs>
<radialGradient id="paint0_radial_2182_650" cx="0" cy="0" r="1" gradientUnits="userSpaceOnUse" gradientTransform="translate(176.666 142.541) rotate(90.0785) scale(172.458 184.009)">
<stop stop-color="#9B0170"/>
<stop offset="1" stop-color="#2C001F"/>
</radialGradient>
<radialGradient id="paint1_radial_2182_650" cx="0" cy="0" r="1" gradientUnits="userSpaceOnUse" gradientTransform="translate(176.666 142.541) rotate(90.0785) scale(172.458 184.009)">
<stop stop-color="#9B0170"/>
<stop offset="1" stop-color="#2C001F"/>
</radialGradient>
</defs>
</svg>
