<svg width="754" height="476" viewBox="0 0 754 476" fill="none" xmlns="http://www.w3.org/2000/svg">
<path d="M1 65L68 0L192.313 1.12539L225.227 41.1855L518.277 42.3086L552.313 2.24857L686.102 1.12333L749 65.0002V293L686.102 360.684L606.999 361.809L590.542 399.249L166.435 398.125L150.726 360.686L68 359.561L1 292V65Z" fill="url(#paint0_radial_4018_41)"/>
<path d="M749 409L682 474L556.687 475.125L523.773 435.065L230.723 433.942L196.687 474.002L63.8981 472.877L1.00016 409L1.00019 185L63.898 188.44L145.001 189.565L161.458 152.125L585.565 153.249L601.274 190.688L682 189.563L749 186V409Z" fill="url(#paint1_radial_4018_41)"/>
<path d="M9.22282 106H0V51.3438C3.24507 48.371 6.53283 45.3982 9.86329 42.4255H12.8095C27.0707 28.3261 41.3319 14.1843 55.5931 0H119V9.9375L100.298 28.6659H93.3811L88.5135 33.5072H80.5716C75.7894 38.2636 71.0072 43.0625 66.225 47.9038H59.9483C48.7614 58.9455 37.5318 70.0296 26.2594 81.1562V89.0553L9.22282 106ZM52.1346 6.24279L15.7557 42.4255H21.2637C31.5113 32.1482 41.8016 21.871 52.1346 11.5938V6.24279Z" fill="#50F26A"/>
<path d="M106 465.777L106 475L51.3438 475C48.371 471.755 45.3982 468.467 42.4255 465.137L42.4255 462.191C28.3261 447.929 14.1843 433.668 -2.43005e-06 419.407L-5.20166e-06 356L9.93749 356L28.6659 374.702L28.6659 381.619L33.5072 386.487L33.5072 394.428C38.2636 399.211 43.0625 403.993 47.9038 408.775L47.9038 415.052C58.9455 426.239 70.0296 437.468 81.1562 448.741L89.0553 448.741L106 465.777ZM6.24279 422.865L42.4255 459.244L42.4255 453.736C32.1482 443.489 21.871 433.198 11.5937 422.865L6.24279 422.865Z" fill="#50F26A"/>
<rect y="94" width="10" height="279" fill="#50F26A"/>
<path d="M744.777 369L754 369L754 423.656C750.755 426.629 747.467 429.602 744.137 432.574L741.191 432.574C726.929 446.674 712.668 460.816 698.407 475L635 475L635 465.062L653.702 446.334L660.619 446.334L665.487 441.493L673.428 441.493C678.211 436.736 682.993 431.937 687.775 427.096L694.052 427.096C705.239 416.054 716.468 404.97 727.741 393.844L727.741 385.945L744.777 369ZM701.865 468.757L738.244 432.574L732.736 432.574C722.489 442.852 712.198 453.129 701.865 463.406L701.865 468.757Z" fill="#50F26A"/>
<path d="M648 9.22269L648 -0.000126704L702.656 -0.000124315C705.629 3.24494 708.602 6.53271 711.575 9.86317L711.575 12.8093C725.674 27.0706 739.816 41.3318 754 55.593L754 119L744.062 119L725.334 100.298L725.334 93.3809L720.493 88.5133L720.493 80.5715C715.736 75.7893 710.937 71.007 706.096 66.2249L706.096 59.9482C695.054 48.7613 683.97 37.5316 672.844 26.2593L664.945 26.2593L648 9.22269ZM747.757 52.1344L711.575 15.7555L711.575 21.2636C721.852 31.5112 732.129 41.8015 742.406 52.1344L747.757 52.1344Z" fill="#50F26A"/>
<rect x="754" y="373" width="10" height="308" transform="rotate(-180 754 373)" fill="#50F26A"/>
<defs>
<radialGradient id="paint0_radial_4018_41" cx="0" cy="0" r="1" gradientUnits="userSpaceOnUse" gradientTransform="translate(375 215) rotate(90.1101) scale(260.124 389.544)">
<stop stop-color="#9B0170"/>
<stop offset="1" stop-color="#2C001F"/>
</radialGradient>
<radialGradient id="paint1_radial_4018_41" cx="0" cy="0" r="1" gradientUnits="userSpaceOnUse" gradientTransform="translate(375 215) rotate(90.1101) scale(260.124 389.544)">
<stop stop-color="#9B0170"/>
<stop offset="1" stop-color="#2C001F"/>
</radialGradient>
</defs>
</svg>
